PathFileType  4	(X/Y/Z) C:\Users\antoi\Documents\MyRepositories\mobilecap\ResultsAnalysis
DataRate	CameraRate	NumFrames	NumMarkers	Units	OrigDataRate	OrigDataStartFrame	OrigNumFrames
100.0	100.0	4	51	mm	100.0	991	1321
Frame#	Time	r_knee			r_shank_antsup			r_ankle			r_calc			r_5meta			r_toe			L_knee			L_shank_antsup			L_ankle			L_calc			L_5meta			L_toe			r_sh2			r_sh3			r_sh4			L_sh2			L_sh3			r_thigh1			r_thigh2			r_thigh3			r_thigh4			r_thigh5			L_thigh1			L_thigh2			L_thigh3			L_thigh4			r.ASIS			r.PSIS			L.ASIS			L.PSIS			C7			R_Shoulder			L_Shoulder			R_Sternum			L_Sternum			R_humerus			R_elbow_med			R_elbow_lat			R_forearm			R_wrist_radius			R_wrist_ulna			L_humerus			L_elbow_med			L_elbow_lat			L_forearm			L_wrist_radius			L_wrist_ulna			R_HJC			L_HJC			R_HJC_reg			L_HJC_reg			
		X1	Y1	Z1	X2	Y2	Z2	X3	Y3	Z3	X4	Y4	Z4	X5	Y5	Z5	X6	Y6	Z6	X7	Y7	Z7	X8	Y8	Z8	X9	Y9	Z9	X10	Y10	Z10	X11	Y11	Z11	X12	Y12	Z12	X13	Y13	Z13	X14	Y14	Z14	X15	Y15	Z15	X16	Y16	Z16	X17	Y17	Z17	X18	Y18	Z18	X19	Y19	Z19	X20	Y20	Z20	X21	Y21	Z21	X22	Y22	Z22	X23	Y23	Z23	X24	Y24	Z24	X25	Y25	Z25	X26	Y26	Z26	X27	Y27	Z27	X28	Y28	Z28	X29	Y29	Z29	X30	Y30	Z30	X31	Y31	Z31	X32	Y32	Z32	X33	Y33	Z33	X34	Y34	Z34	X35	Y35	Z35	X36	Y36	Z36	X37	Y37	Z37	X38	Y38	Z38	X39	Y39	Z39	X40	Y40	Z40	X41	Y41	Z41	X42	Y42	Z42	X43	Y43	Z43	X44	Y44	Z44	X45	Y45	Z45	X46	Y46	Z46	X47	Y47	Z47	X48	Y48	Z48	X49	Y49	Z49	X50	Y50	Z50	X51	Y51	Z51	

991	9.90000000	-178.85183	450.58753	-386.42100	-139.88566	384.28183	-389.14819	-278.72728	82.42888	-427.08435	-333.25044	55.14035	-474.88463	-174.16465	41.36966	-397.71344	-134.45498	58.25356	-449.71031	-167.84840	459.09141	-755.50364	-137.54234	366.02473	-763.35082	-276.18664	95.82298	-792.06847	-334.23175	54.66400	-746.84376	-180.41292	43.95746	-831.61444	-128.01301	61.01583	-781.64878	-179.65544	278.21257	-388.73507	-206.30615	408.52210	-359.84648	-253.66444	302.66732	-363.89241	-211.81948	408.94499	-790.50312	-253.01954	294.87272	-810.56032	-262.57219	685.15075	-333.39667	-203.13353	590.70183	-346.97887	-297.09807	537.62536	-381.50156	-358.95612	634.15383	-360.93103	-250.80238	538.82039	-352.66707	-263.55395	722.24912	-740.80540	-192.67191	604.24025	-751.36410	-362.62749	669.76693	-736.21986	-290.40224	549.77219	-730.31890	-251.33735	834.60267	-416.37271	-426.90756	938.44079	-496.16309	-239.11544	833.91535	-629.93197	-418.63678	934.81738	-578.45010	-178.12752	1294.62265	-487.49374	-121.79440	1256.08073	-356.03817	-118.78991	1261.86102	-619.83791	-68.78217	1207.98141	-471.54496	-70.58173	1203.58298	-500.77262	-61.48711	1175.09215	-304.97785	0.95116	965.97031	-306.32968	31.53624	1002.47193	-254.17832	111.86731	1045.59743	-281.93771	231.45586	1071.43996	-351.55798	247.51161	1040.32282	-333.93941	-74.52666	1189.21523	-694.00406	12.71754	983.60092	-702.62045	29.31459	1028.25654	-750.48080	130.80327	1056.05721	-725.39479	242.37683	1073.80120	-668.00975	253.55274	1039.40259	-686.02141	-357.75665	783.28685	-424.68167	-344.42526	784.01827	-631.75836	-341.66720	802.64625	-453.09569	-327.56159	796.46674	-593.43502	
992	9.91000000	-181.73401	451.98141	-386.44437	-142.93201	385.60378	-389.22315	-278.81486	82.38260	-427.01446	-333.26804	55.10655	-474.83304	-174.17193	41.38519	-397.70389	-134.25048	58.27925	-449.81540	-170.62899	460.31597	-755.39702	-140.18628	367.31447	-763.06635	-276.44209	95.78418	-792.15403	-334.25368	54.59598	-746.86331	-180.40983	43.93860	-831.61808	-128.04386	61.08009	-781.68247	-181.85239	279.38122	-388.67880	-209.51966	409.39282	-360.30479	-256.05072	303.12735	-364.23100	-214.84586	409.71194	-790.48737	-255.12281	295.15924	-810.26736	-260.95946	688.57577	-333.57625	-203.36530	592.78119	-347.50181	-298.44204	541.53904	-381.52069	-358.28342	639.14482	-361.37890	-252.06207	541.82710	-352.84618	-261.53175	726.10123	-741.51072	-192.74889	606.10286	-751.58912	-361.37149	674.93524	-736.44744	-291.40858	553.43227	-730.27470	-247.40681	839.46496	-418.45552	-424.97749	942.79566	-496.65566	-235.97064	840.29619	-630.54268	-416.55661	939.24602	-578.81834	-181.77390	1302.68175	-487.19736	-125.49523	1264.17875	-355.49495	-121.87032	1270.84158	-620.17306	-71.17827	1217.24821	-471.46467	-72.13725	1216.48369	-501.31800	-65.46380	1182.55867	-304.45905	-3.89554	972.79703	-306.13228	26.15460	1009.51292	-253.30752	107.11896	1051.81309	-280.88332	227.54597	1076.55338	-349.50312	243.17356	1045.50250	-331.85369	-77.75619	1197.18591	-693.69003	8.32743	990.72015	-701.64518	24.82297	1034.95033	-749.75230	126.42455	1062.58207	-725.58748	238.45845	1080.18270	-668.99840	249.37375	1045.61765	-686.83253	-353.79382	787.48680	-426.09591	-340.97796	789.50864	-633.19434	-337.87447	808.01239	-455.11040	-323.59617	801.99165	-594.43594	
993	9.92000000	-184.59289	453.26263	-386.63713	-145.98933	386.94133	-389.28319	-278.89628	82.32231	-426.98199	-333.25902	55.08351	-474.78400	-174.19977	41.39224	-397.71197	-134.20353	58.37963	-449.76323	-173.42050	461.37606	-755.03763	-142.88897	368.65033	-762.91471	-276.65907	95.74111	-792.20021	-334.29469	54.53178	-746.91325	-180.41540	43.88771	-831.60686	-128.09544	61.13021	-781.70825	-184.05616	280.45728	-388.69172	-212.72864	410.18294	-360.83034	-258.63251	303.58089	-364.72437	-217.95556	410.42064	-790.31677	-257.20683	295.53848	-810.20918	-259.16985	691.61369	-334.16886	-203.58820	594.63912	-348.13831	-299.78930	545.28178	-381.61804	-357.51041	644.09349	-361.70591	-253.21850	544.67058	-353.15361	-259.14032	729.81422	-742.61218	-192.74595	607.94948	-751.80941	-359.96105	679.94017	-736.52209	-292.33648	557.09767	-730.17900	-243.76103	844.51624	-419.92081	-423.00452	946.90623	-496.94893	-232.72886	846.54701	-631.19478	-414.44352	943.49385	-579.22208	-185.53042	1310.35812	-486.83024	-129.30784	1271.95351	-354.94029	-125.11933	1279.42849	-620.39191	-74.18717	1226.08353	-471.68159	-74.12023	1227.58193	-501.83005	-69.60150	1189.81777	-303.80164	-9.02122	979.89256	-305.49409	20.78690	1016.57329	-252.04592	102.57150	1057.84666	-279.62179	223.59562	1081.58370	-347.12531	238.91329	1050.45843	-329.88087	-80.85536	1204.99704	-693.51137	3.84715	997.82783	-701.08849	20.26783	1041.54137	-749.26960	122.01810	1068.95450	-725.81718	234.50171	1086.26769	-669.87766	245.05269	1051.46036	-687.51325	-349.89025	791.69881	-427.24502	-337.39338	794.80754	-634.35277	-334.18242	813.05148	-456.59233	-319.74238	807.29517	-595.36096	
994	9.93000000	-187.38425	454.40096	-387.07747	-149.03896	388.25235	-389.41386	-278.93816	82.25755	-426.94104	-333.27898	55.04949	-474.74710	-174.24047	41.36765	-397.73301	-134.31519	58.52100	-449.57613	-176.23619	462.39081	-754.58862	-145.67123	370.03994	-762.92235	-276.87845	95.66880	-792.25662	-334.35782	54.45388	-747.00277	-180.45199	43.82838	-831.59546	-128.16291	61.17205	-781.74216	-186.26713	281.39218	-388.79194	-216.02796	411.05661	-361.23268	-261.23158	304.09762	-365.26552	-221.07568	411.07816	-789.97645	-259.29762	295.92107	-810.14824	-257.24269	694.51923	-334.76273	-203.74444	596.36030	-348.78197	-301.03371	548.69479	-382.01070	-356.59413	648.93045	-362.08200	-254.31995	547.34666	-353.62374	-256.47224	732.75058	-743.02551	-192.68185	609.64780	-751.87056	-358.43121	684.74668	-736.25861	-293.25229	560.70620	-730.09352	-240.83485	850.43643	-419.68459	-420.95000	950.78794	-497.23969	-229.48048	852.69806	-631.83609	-412.28390	947.52252	-579.66677	-189.32467	1317.85064	-486.60868	-133.20765	1279.57786	-354.50248	-128.46086	1287.56645	-620.60629	-77.13901	1234.77617	-471.88085	-76.89981	1236.34769	-501.96241	-73.88471	1196.84350	-303.07683	-14.19892	986.98331	-305.08123	15.74071	1023.14100	-251.29051	98.14304	1063.72277	-278.34177	219.66387	1086.61927	-344.92417	234.71702	1055.31045	-327.78964	-83.78808	1212.69833	-693.65632	-0.77573	1004.87130	-701.13791	15.81801	1048.15125	-749.26373	117.70545	1075.12623	-726.07085	230.57518	1092.03748	-670.71634	240.75095	1056.95509	-688.06405	-346.26330	796.40624	-427.60967	-333.53629	799.76375	-634.69991	-330.90330	817.73717	-456.58613	-316.25147	812.21767	-595.93700	
